<svg width="256" height="256" viewBox="0 0 256 256" xmlns="http://www.w3.org/2000/svg" role="img" aria-label="Worktree simulator setup icon">
  <rect width="256" height="256" rx="36" fill="#0C7D69"/>
  <path d="M52 72h96a8 8 0 0 1 8 8v22H44V80a8 8 0 0 1 8-8Zm-8 42h112v54a8 8 0 0 1-8 8H52a8 8 0 0 1-8-8v-54Z" fill="#E8FFF8"/>
  <rect x="58" y="127" width="84" height="7" rx="3.5" fill="#0C7D69"/>
  <rect x="58" y="142" width="55" height="7" rx="3.5" fill="#0C7D69"/>
  <path d="M170 98h34a8 8 0 0 1 8 8v56a8 8 0 0 1-8 8h-34a8 8 0 0 1-8-8v-56a8 8 0 0 1 8-8Z" fill="#E8FFF8"/>
  <circle cx="187" cy="155" r="4" fill="#0C7D69"/>
  <path d="M186 78 172 92l14 14" fill="none" stroke="#E8FFF8" stroke-width="8" stroke-linecap="round" stroke-linejoin="round"/>
  <path d="m196 110 14-14-14-14" fill="none" stroke="#E8FFF8" stroke-width="8" stroke-linecap="round" stroke-linejoin="round"/>
</svg>
