<svg width="256" height="256" viewBox="0 0 256 256" xmlns="http://www.w3.org/2000/svg" role="img" aria-label="Worktree cleanup icon">
  <rect width="256" height="256" rx="36" fill="#6F42C1"/>
  <path d="M52 72h92a8 8 0 0 1 8 8v22H44V80a8 8 0 0 1 8-8Zm-8 42h108v54a8 8 0 0 1-8 8H52a8 8 0 0 1-8-8v-54Z" fill="#F4ECFF"/>
  <rect x="58" y="128" width="78" height="7" rx="3.5" fill="#6F42C1"/>
  <rect x="58" y="144" width="48" height="7" rx="3.5" fill="#6F42C1"/>
  <path d="M176 89h36" stroke="#F4ECFF" stroke-width="8" stroke-linecap="round"/>
  <path d="M184 89l4 74a8 8 0 0 0 8 7h18a8 8 0 0 0 8-7l4-74" fill="none" stroke="#F4ECFF" stroke-width="8" stroke-linejoin="round"/>
  <path d="M194 73h24l6 16h-36l6-16Z" fill="#F4ECFF"/>
  <path d="M198 112v38M212 112v38" stroke="#F4ECFF" stroke-width="7" stroke-linecap="round"/>
  <path d="m170 130-18-18m0 18 18-18" stroke="#F4ECFF" stroke-width="8" stroke-linecap="round"/>
</svg>
